<svg width="14" height="14" viewBox="0 0 14 14" fill="none" xmlns="http://www.w3.org/2000/svg">
<path d="M6.99982 0.466553C6.99982 0.466553 6.93315 0.533219 6.99982 0.466553C6.93315 0.466553 6.93315 0.466553 6.93315 0.466553C6.66649 0.466553 6.39982 0.666553 6.46649 0.999886C6.46649 1.26655 6.66649 1.46655 6.99982 1.46655C6.99982 1.46655 6.99982 1.46655 7.06649 1.46655C10.0665 1.46655 12.5332 3.93322 12.5332 6.93322C12.5332 9.93322 10.0665 12.3999 7.06649 12.3999C5.33315 12.3999 3.73315 11.5999 2.66649 10.1999C2.59982 10.1332 2.53315 10.0666 2.39982 9.99989C2.26649 9.93322 2.06649 9.99989 1.93315 10.0666C1.86649 10.1332 1.86649 10.1332 1.79982 10.1999C1.73315 10.2666 1.73315 10.3999 1.73315 10.4666C1.73315 10.5332 1.73315 10.5332 1.79982 10.5999C1.79982 10.6666 1.79982 10.6666 1.86649 10.7332C3.13315 12.3999 4.99982 13.3332 7.06649 13.3332C10.6665 13.3332 13.5998 10.3999 13.5998 6.79989C13.5998 3.19989 10.5998 0.466553 6.99982 0.466553Z" fill="#1C93E3"/>
<path d="M3.46657 9.66649C3.53324 9.79982 3.73324 9.93316 3.86657 9.93316C3.93324 9.93316 4.06657 9.93316 4.13324 9.86649L7.3999 7.93316C7.3999 7.93316 7.3999 7.93316 7.46657 7.86649L7.53324 7.79982L7.5999 7.73316C7.5999 7.73316 7.5999 7.66649 7.66657 7.66649C7.66657 7.66649 7.66657 7.59982 7.66657 7.53316V7.46649V3.26649C7.66657 2.99982 7.46657 2.73315 7.13324 2.73315C6.7999 2.73315 6.66657 2.99982 6.66657 3.26649V7.19982L3.66657 8.99982C3.3999 9.13316 3.33324 9.46649 3.46657 9.66649Z" fill="#1C93E3"/>
<path d="M1.73328 8.46653C1.66661 8.19987 1.39995 8.06653 1.13328 8.1332C0.866615 8.19987 0.733281 8.46653 0.799948 8.7332C0.799948 8.99987 0.999948 9.1332 1.19995 9.1332C1.26661 9.1332 1.26661 9.1332 1.33328 9.1332C1.59995 9.06653 1.79995 8.7332 1.73328 8.46653Z" fill="#1C93E3"/>
<path d="M4.73331 1.93311C4.79998 1.93311 4.86665 1.93311 4.93331 1.86645C5.19998 1.73311 5.33331 1.46645 5.19998 1.19978C5.13331 0.99978 4.86665 0.866447 4.59998 0.933113C4.33331 1.06645 4.19998 1.33311 4.33331 1.59978C4.39998 1.79978 4.59998 1.93311 4.73331 1.93311Z" fill="#1C93E3"/>
<path d="M2.93321 3.13312C3.06654 3.13312 3.19987 3.06645 3.26654 2.99979C3.46654 2.79979 3.46654 2.46646 3.26654 2.26646C3.06654 2.06646 2.73321 2.06646 2.53321 2.26646C2.39988 2.39979 2.33321 2.73312 2.53321 2.93312C2.66654 3.06646 2.79988 3.13312 2.93321 3.13312Z" fill="#1C93E3"/>
<path d="M1.39997 4.79998C1.46663 4.86664 1.5333 4.86664 1.59997 4.86664C1.79997 4.86664 1.9333 4.73331 2.06663 4.59998C2.19997 4.33331 2.06663 4.06664 1.86663 3.93331C1.59997 3.79998 1.3333 3.93331 1.19997 4.13331C1.06663 4.39998 1.1333 4.66664 1.39997 4.79998Z" fill="#1C93E3"/>
<path d="M0.999886 6.93311C1.26655 6.93311 1.46655 6.73311 1.46655 6.46644C1.46655 6.19977 1.26655 5.93311 0.999886 5.93311C0.733219 5.93311 0.466553 6.13311 0.466553 6.39977C0.466553 6.66644 0.666553 6.93311 0.999886 6.93311Z" fill="#1C93E3"/>
</svg>
