<svg width="24" height="24" viewBox="0 0 24 24" fill="none" xmlns="http://www.w3.org/2000/svg">
<g clip-path="url(#clip0_1127_7936)">
<path d="M12 2.2002C12 2.2002 11.9 2.3002 12 2.2002C11.9 2.2002 11.9 2.2002 11.9 2.2002C11.5 2.2002 11.1 2.5002 11.2 3.0002C11.2 3.4002 11.5 3.7002 12 3.7002C12 3.7002 12 3.7002 12.1 3.7002C16.6 3.7002 20.3 7.4002 20.3 11.9002C20.3 16.4002 16.6 20.1002 12.1 20.1002C9.49998 20.1002 7.09998 18.9002 5.49998 16.8002C5.39998 16.7002 5.29998 16.6002 5.09998 16.5002C4.89998 16.4002 4.59998 16.5002 4.39998 16.6002C4.29998 16.7002 4.29998 16.7002 4.19998 16.8002C4.09998 16.9002 4.09998 17.1002 4.09998 17.2002C4.09998 17.3002 4.09998 17.3002 4.19998 17.4002C4.19998 17.5002 4.19998 17.5002 4.29998 17.6002C6.19998 20.1002 8.99998 21.5002 12.1 21.5002C17.5 21.5002 21.9 17.1002 21.9 11.7002C21.9 6.3002 17.4 2.2002 12 2.2002Z" fill="#5CB050"/>
<path d="M6.69998 16.0001C6.79998 16.2001 7.09998 16.4001 7.29998 16.4001C7.39998 16.4001 7.59998 16.4001 7.69998 16.3001L12.6 13.4001C12.6 13.4001 12.6 13.4001 12.7 13.3001L12.8 13.2001L12.9 13.1001C12.9 13.1001 12.9 13.0001 13 13.0001C13 13.0001 13 12.9001 13 12.8001V12.7001V6.4001C13 6.0001 12.7 5.6001 12.2 5.6001C11.7 5.6001 11.5 6.0001 11.5 6.4001V12.3001L6.99998 15.0001C6.59998 15.2001 6.49998 15.7001 6.69998 16.0001Z" fill="#5CB050"/>
<path d="M4.09992 14.2003C3.99992 13.8003 3.59992 13.6003 3.19992 13.7003C2.79992 13.8003 2.59992 14.2003 2.69992 14.6003C2.69992 15.0003 2.99992 15.2003 3.29992 15.2003C3.39992 15.2003 3.39992 15.2003 3.49992 15.2003C3.89992 15.1003 4.19992 14.6003 4.09992 14.2003Z" fill="#5CB050"/>
<path d="M8.59997 4.40004C8.69997 4.40004 8.79997 4.40004 8.89997 4.30004C9.29997 4.10004 9.49997 3.70004 9.29997 3.30004C9.19997 3.00004 8.79997 2.80004 8.39997 2.90004C7.99997 3.10004 7.79997 3.50004 7.99997 3.90004C8.09997 4.20004 8.39997 4.40004 8.59997 4.40004Z" fill="#5CB050"/>
<path d="M5.89993 6.20029C6.09993 6.20029 6.29993 6.10029 6.39993 6.00029C6.69993 5.70029 6.69993 5.20029 6.39993 4.90029C6.09993 4.60029 5.59993 4.60029 5.29993 4.90029C5.09993 5.10029 4.99993 5.60029 5.29993 5.90029C5.49993 6.10029 5.69993 6.20029 5.89993 6.20029Z" fill="#5CB050"/>
<path d="M3.59995 8.70033C3.69995 8.80033 3.79995 8.80033 3.89995 8.80033C4.19995 8.80033 4.39995 8.60033 4.59995 8.40033C4.79995 8.00033 4.59995 7.60033 4.29995 7.40033C3.89995 7.20033 3.49995 7.40033 3.29995 7.70033C3.09995 8.10033 3.19995 8.50033 3.59995 8.70033Z" fill="#5CB050"/>
<path d="M2.99995 11.9004C3.39995 11.9004 3.69995 11.6004 3.69995 11.2004C3.69995 10.8004 3.39995 10.4004 2.99995 10.4004C2.59995 10.4004 2.19995 10.7004 2.19995 11.1004C2.19995 11.5004 2.49995 11.9004 2.99995 11.9004Z" fill="#5CB050"/>
</g>
<defs>
<clipPath id="clip0_1127_7936">
<rect width="24" height="24" fill="white"/>
</clipPath>
</defs>
</svg>
