<svg width="20" height="20" viewBox="0 0 20 20" fill="none" xmlns="http://www.w3.org/2000/svg">
<path d="M15 18.0833H5C4.16667 18.0833 3.5 17.4167 3.5 16.5833V10.5833H3.33333C2.5 10.5833 1.83333 9.91667 1.83333 9.08333V7.5C1.91667 6.66667 2.5 6 3.33333 6H16.6667C17.5 6 18.1667 6.66667 18.1667 7.5V9.16667C18.1667 10 17.5 10.6667 16.6667 10.6667H16.5V16.6667C16.5 17.5 15.8333 18.0833 15 18.0833ZM4.83333 10.5833V16.6667C4.83333 16.75 4.91667 16.8333 5 16.8333H15C15.0833 16.8333 15.1667 16.75 15.1667 16.6667V10.6667H4.83333V10.5833ZM15.8333 9.33333H16.6667C16.75 9.33333 16.8333 9.25 16.8333 9.16667V7.5C16.8333 7.41667 16.75 7.33333 16.6667 7.33333H3.33333C3.25 7.25 3.16667 7.41667 3.16667 7.5V9.16667C3.16667 9.25 3.25 9.33333 3.41667 9.33333H15.8333Z" fill="#1C93E3"/>
<path d="M10 18.0833C9.66667 18.0833 9.33333 17.8333 9.33333 17.4167V6.66667C9.33333 6.33333 9.58333 6 10 6C10.4167 6 10.6667 6.25 10.6667 6.66667V17.5C10.6667 17.8333 10.3333 18.0833 10 18.0833Z" fill="#1C93E3"/>
<path d="M10.0833 7.25008C9.75 7.25008 9.41667 7.00008 9.41667 6.58341C9.41667 6.25008 9.66667 5.91675 10.0833 5.91675C10.6667 5.91675 11.9167 5.75008 12.6667 4.91675C12.9167 4.66675 13.3333 4.66675 13.5833 4.91675C13.8333 5.16675 13.8333 5.58341 13.5833 5.83341C12.5833 6.91675 11.0833 7.25008 10.0833 7.25008Z" fill="#1C93E3"/>
<path d="M10.0833 7.24992C9.75 7.24992 9.5 6.99992 9.5 6.74992C9.41667 6.41659 9.08334 3.83325 10.25 2.58325C10.5 2.33325 10.9167 2.33325 11.1667 2.58325C11.4167 2.83325 11.4167 3.24992 11.1667 3.49992C10.5 4.16659 10.6667 5.99992 10.75 6.58325C10.8333 6.91659 10.5833 7.24992 10.25 7.33325C10.1667 7.24992 10.0833 7.24992 10.0833 7.24992Z" fill="#1C93E3"/>
<path d="M13.0833 6.16667C12.9167 6.16667 12.75 6.08333 12.6667 6C12.4167 5.75 12.4167 5.33333 12.6667 5.08333C13.0833 4.66667 13.0833 3.91667 12.6667 3.41667C12.25 3 11.5833 3 11.1667 3.41667C10.9167 3.66667 10.5 3.66667 10.25 3.41667C10 3.16667 10 2.75 10.25 2.5C11.1667 1.58333 12.6667 1.58333 13.5833 2.5C14.5 3.41667 14.5 4.91667 13.5833 5.83333C13.4167 6.08333 13.25 6.16667 13.0833 6.16667Z" fill="#1C93E3"/>
<path d="M9.91667 7.25C8.91667 7.25 7.41667 6.91667 6.5 5.91667C6.25 5.66667 6.25 5.25 6.5 5C6.75 4.75 7.16667 4.75 7.41667 5C8.16667 5.75 9.33333 6 10 6C10.3333 6 10.6667 6.25 10.6667 6.66667C10.5833 7 10.25 7.25 9.91667 7.25Z" fill="#1C93E3"/>
<path d="M9.91667 7.25H9.83333C9.5 7.16667 9.25 6.91667 9.33333 6.5C9.5 5.58333 9.5 4 8.91667 3.41667C8.66667 3.16667 8.66667 2.75 8.91667 2.5C9.16667 2.25 9.58333 2.25 9.83333 2.5C11 3.75 10.6667 6.41667 10.5833 6.66667C10.5 7.08333 10.25 7.25 9.91667 7.25Z" fill="#1C93E3"/>
<path d="M6.91667 6.16675C6.75 6.16675 6.58333 6.08341 6.5 6.00008C5.58333 5.08341 5.58333 3.58341 6.5 2.66675C7.41667 1.75008 8.91667 1.75008 9.83333 2.66675C10.0833 2.91675 10.0833 3.33341 9.83333 3.58341C9.58333 3.83341 9.16667 3.83341 8.91667 3.58341C8.5 3.16675 7.83333 3.16675 7.41667 3.58341C7 4.00008 7 4.75008 7.41667 5.25008C7.66667 5.50008 7.66667 5.91675 7.41667 6.16675C7.25 6.08341 7.08333 6.16675 6.91667 6.16675Z" fill="#1C93E3"/>
</svg>
