<svg width="19" height="19" viewBox="0 0 19 19" fill="none" xmlns="http://www.w3.org/2000/svg">
<path d="M15.9 0.300003H11.5C10.7 0.300003 10 0.600003 9.50002 1.1L1.10002 9.5C2.44379e-05 10.6 2.44379e-05 12.4 1.10002 13.5L5.50002 17.9C6.00002 18.5 6.80002 18.7 7.50002 18.7C8.20002 18.7 9.00002 18.4 9.50002 17.9L17.9 9.5C18.4 9 18.7 8.3 18.7 7.5V3.1C18.8 1.5 17.5 0.300003 15.9 0.300003ZM8.40002 16.9C7.90002 17.4 7.00002 17.4 6.50002 16.9L2.10002 12.5C1.60002 12 1.60002 11.1 2.10002 10.6L3.80002 8.9L10.1 15.2L8.40002 16.9ZM17.3 7.5C17.3 7.9 17.2 8.2 16.9 8.5L11.2 14.2L4.90002 7.9L10.6 2.2C10.9 2 11.2 1.8 11.6 1.8H16C16.8 1.8 17.4 2.4 17.4 3.2V7.5H17.3Z" fill="#81868A"/>
<path d="M13.5 4.3C12.9 4.3 12.4 4.8 12.4 5.4C12.4 6 12.9 6.5 13.5 6.5C14.1 6.5 14.6 6 14.6 5.4C14.7 4.8 14.2 4.3 13.5 4.3Z" fill="#81868A"/>
</svg>
