<svg width="80" height="87" viewBox="0 0 80 87" fill="none" xmlns="http://www.w3.org/2000/svg">
<path d="M76.5775 25.7463L56.8984 5.34586C54.7594 3.12842 51.3369 2.24145 48.3423 2.68493C47.9144 2.68493 47.4866 2.68493 47.0588 3.12842C47.0588 3.12842 47.0588 3.12842 46.631 3.12842C46.2032 3.12842 46.2032 3.12842 45.7754 3.57191C43.6364 1.35447 40.6417 0.0240064 37.2193 0.0240064H11.9786C5.5615 -0.419481 0 5.34586 0 11.9982V65.6602C0 69.2081 1.28342 72.3125 3.85027 74.5299L13.262 82.9562C15.4011 85.1736 18.3957 86.0606 20.9626 86.0606H28.6631C31.6578 86.0606 34.2246 85.1736 36.3636 82.9562L48.3423 71.869L76.5775 42.5988C78.7166 40.3814 80 37.277 80 34.1726C80 31.0681 78.7166 27.9637 76.5775 25.7463ZM24.8128 69.6516C22.6738 69.6516 20.5348 67.4341 20.5348 65.2167C20.5348 62.9992 22.6738 60.7818 24.8128 60.7818C26.9519 60.7818 29.0909 62.9992 29.0909 65.2167C29.0909 67.4341 26.9519 69.6516 24.8128 69.6516ZM72.2995 38.1639L49.6257 61.6688V11.9982C49.6257 11.1112 49.6257 10.2242 49.1979 9.33725C49.1979 9.33725 49.1979 9.33725 49.6257 9.33725H50.0535C50.0535 9.33725 50.4813 9.33725 50.9091 9.33725C51.7647 9.33725 52.1925 9.78073 53.0481 10.2242L72.7273 30.6247C73.5829 31.5116 74.4385 32.8421 74.4385 34.616C74.4385 36.39 73.1551 37.277 72.2995 38.1639Z" fill="#D9DBE3"/>
</svg>
