<svg width="16" height="16" viewBox="0 0 16 16" fill="none" xmlns="http://www.w3.org/2000/svg">
<path d="M8.00001 14.4666C4.40001 14.4666 1.46667 11.5332 1.46667 7.99989C1.46667 4.46655 4.40001 1.46655 8.00001 1.46655C11.6 1.46655 14.5333 4.39989 14.5333 7.99989C14.5333 11.5999 11.6 14.4666 8.00001 14.4666ZM8.00001 2.46655C5.00001 2.46655 2.53334 4.93322 2.53334 7.93322C2.53334 10.9332 5.00001 13.3999 8.00001 13.3999C11 13.3999 13.5333 10.9332 13.5333 7.93322C13.5333 4.93322 11 2.46655 8.00001 2.46655Z" fill="#1C93E3"/>
<path d="M7.20003 10.5333C7.00003 10.5333 6.8667 10.4666 6.6667 10.4C6.33336 10.2 6.13336 9.86662 6.13336 9.46662V6.53328C6.13336 6.13328 6.33336 5.79995 6.6667 5.59995C7.00003 5.39995 7.40003 5.39995 7.73336 5.59995L10.2 7.06662C10.5334 7.26662 10.7334 7.59995 10.7334 7.93328C10.7334 8.33328 10.5334 8.66662 10.2 8.79995L7.73336 10.2666C7.53336 10.4666 7.40003 10.5333 7.20003 10.5333ZM7.20003 6.46662C7.20003 6.46662 7.20003 6.53328 7.20003 6.46662L7.13336 9.39995L7.20003 9.46662L9.6667 7.99995L9.93336 7.46662L9.6667 7.86662L7.20003 6.46662C7.20003 6.53328 7.20003 6.46662 7.20003 6.46662Z" fill="#1C93E3"/>
</svg>
