<svg width="16" height="16" viewBox="0 0 16 16" fill="none" xmlns="http://www.w3.org/2000/svg">
<path d="M6.1333 11.9999C6.1333 12.2666 6.3333 12.5332 6.66663 12.5332H9.3333C9.59997 12.5332 9.86663 12.3332 9.86663 11.9999C9.86663 11.6666 9.66663 11.4666 9.3333 11.4666H6.66663C6.39997 11.4666 6.1333 11.7332 6.1333 11.9999Z" fill="#1C93E3"/>
<path d="M12.4667 4.19989V2.66655C12.4667 1.99989 11.9333 1.46655 11.2667 1.46655H4.66666C4.06666 1.46655 3.53333 1.99989 3.53333 2.66655V4.26655C3.53333 4.66655 3.66666 4.99989 3.86666 5.33322L5.79999 7.99989L3.86666 10.6666C3.66666 10.9999 3.53333 11.3332 3.53333 11.7332V13.3332C3.53333 13.9999 4.06666 14.5332 4.73332 14.5332H11.4C12.0667 14.5332 12.6 13.9999 12.6 13.3332V11.7999C12.6 11.3999 12.4667 10.9999 12.2 10.6666L10.1333 7.99989L12.2 5.33322C12.3333 4.99989 12.4667 4.59989 12.4667 4.19989ZM11.4667 4.19989C11.4667 4.39989 11.4 4.53322 11.2667 4.73322L8.99999 7.66655C8.86666 7.86655 8.86666 8.06655 8.99999 8.26655L11.2667 11.1999C11.4 11.3332 11.4667 11.5332 11.4667 11.7332V13.3332C11.4667 13.3999 11.4 13.4666 11.3333 13.4666H4.66666C4.59999 13.4666 4.53333 13.3999 4.53333 13.3332V11.7332C4.53333 11.5332 4.59999 11.3999 4.66666 11.2666L6.79999 8.33322C6.93332 8.13322 6.93332 7.93322 6.79999 7.73322L4.66666 4.73322C4.59999 4.59989 4.53333 4.39989 4.53333 4.26655V2.66655C4.53333 2.59989 4.59999 2.53322 4.66666 2.53322H11.3333C11.4 2.53322 11.4667 2.59989 11.4667 2.66655V4.19989Z" fill="#1C93E3"/>
</svg>
