<svg width="18" height="14" viewBox="0 0 18 14" fill="none" xmlns="http://www.w3.org/2000/svg">
<path d="M16.5 6.20005H3.30001L8.00001 1.50005C8.30001 1.20005 8.30001 0.700049 8.00001 0.400049C7.70001 0.100049 7.20001 0.100049 6.90001 0.400049L0.900012 6.40005C0.800012 6.50005 0.800012 6.60005 0.700012 6.70005C0.700012 7.00005 0.700012 7.30005 1.00001 7.50005L7.00001 13.5C7.10001 13.6 7.30001 13.7 7.50001 13.7C7.70001 13.7 7.90001 13.6 8.00001 13.5C8.30001 13.2 8.30001 12.7 8.00001 12.4L3.30001 7.70005H16.5C16.9 7.70005 17.3 7.40005 17.3 6.90005C17.3 6.40005 16.9 6.20005 16.5 6.20005Z" fill="white"/>
</svg>
