<svg width="24" height="24" viewBox="0 0 24 24" fill="none" xmlns="http://www.w3.org/2000/svg">
<path d="M12.0004 15.8C14.0004 15.8 15.6004 14.2 15.6004 12.2V5.9C15.6004 3.9 14.0004 2.3 12.0004 2.3C10.0004 2.3 8.40039 3.9 8.40039 5.9V12.1C8.40039 14.1 10.0004 15.8 12.0004 15.8ZM9.90039 5.9C9.90039 4.7 10.9004 3.8 12.0004 3.8C13.1004 3.8 14.1004 4.8 14.1004 5.9V12.1C14.1004 13.3 13.1004 14.2 12.0004 14.2C10.9004 14.2 9.90039 13.2 9.90039 12.1V5.9Z" fill="white"/>
<path d="M18.8002 12V10C18.8002 9.6 18.5002 9.2 18.0002 9.2C17.5002 9.2 17.2002 9.5 17.2002 10V12C17.2002 14.9 14.8002 17.2 12.0002 17.2C9.2002 17.2 6.8002 14.9 6.8002 12V10C6.8002 9.6 6.5002 9.2 6.0002 9.2C5.5002 9.2 5.2002 9.6 5.2002 10V12C5.2002 15.5 7.8002 18.3 11.2002 18.7V20.2H7.7002C7.3002 20.2 7.0002 20.6 7.0002 21C7.0002 21.4 7.3002 21.8 7.8002 21.8H16.2002C16.6002 21.8 17.0002 21.5 17.0002 21C17.0002 20.5 16.7002 20.2 16.2002 20.2H12.9002V18.7C16.1002 18.3 18.8002 15.5 18.8002 12Z" fill="white"/>
</svg>
