<svg width="24" height="24" viewBox="0 0 24 24" fill="none" xmlns="http://www.w3.org/2000/svg">
<path d="M19.0002 17.3C18.6002 17.3 18.2002 17 18.2002 16.5C18.2002 16 18.5002 15.7 19.0002 15.7C19.7002 15.7 20.2002 15.1 20.2002 14.5V6.5C20.2002 5.8 19.6002 5.3 19.0002 5.3H5.0002C4.3002 5.3 3.7002 5.9 3.7002 6.5V14.5C3.7002 15.2 4.3002 15.7 5.0002 15.7C5.4002 15.7 5.8002 16 5.8002 16.5C5.8002 17 5.4002 17.3 5.0002 17.3C3.5002 17.3 2.2002 16.1 2.2002 14.5V6.5C2.3002 5 3.5002 3.8 5.0002 3.8H19.0002C20.5002 3.8 21.8002 5 21.8002 6.6V14.6C21.8002 16 20.5002 17.3 19.0002 17.3Z" fill="#29A9EB"/>
<path d="M7.00038 20.3C6.80038 20.3 6.70038 20.2 6.50038 20.1C6.20038 19.8 6.10038 19.4 6.40038 19L11.4004 13C11.7004 12.7 12.1004 12.6 12.5004 12.9C12.8004 13.2 12.9004 13.6 12.6004 14L7.60038 20C7.40038 20.2 7.20038 20.3 7.00038 20.3Z" fill="#29A9EB"/>
<path d="M17.0004 20.3C16.8004 20.3 16.6004 20.2 16.4004 20L11.4004 14C11.1004 13.7 11.2004 13.2 11.5004 12.9C11.8004 12.6 12.3004 12.7 12.6004 13L17.6004 19C17.9004 19.3 17.8004 19.8 17.5004 20.1C17.3004 20.2 17.2004 20.3 17.0004 20.3Z" fill="#29A9EB"/>
<path d="M17.0002 20.3H7.0002C6.6002 20.3 6.2002 20 6.2002 19.5C6.2002 19 6.5002 18.7 7.0002 18.7H17.0002C17.4002 18.7 17.8002 19 17.8002 19.5C17.8002 20 17.4002 20.3 17.0002 20.3Z" fill="#29A9EB"/>
</svg>
