<svg width="24" height="24" viewBox="0 0 24 24" fill="none" xmlns="http://www.w3.org/2000/svg">
<g clip-path="url(#clip0_1075_9926)">
<path d="M21.3002 7.5C20.7002 6.7 19.5002 6.6 18.7002 7.2L16.1002 9.3V8.6C16.1002 6.9 14.8002 5.6 13.1002 5.6H5.2002C3.5002 5.6 2.2002 6.9 2.2002 8.6V15.4C2.2002 17.1 3.5002 18.4 5.2002 18.4H13.1002C14.8002 18.4 16.1002 17.1 16.1002 15.4V14.7L18.7002 16.8C19.0002 17.1 19.4002 17.2 19.9002 17.2C20.9002 17.2 21.8002 16.4 21.8002 15.3V8.7C21.8002 8.3 21.6002 7.9 21.3002 7.5ZM14.6002 15.4C14.6002 16.2 13.9002 16.9 13.1002 16.9H5.2002C4.4002 16.9 3.7002 16.2 3.7002 15.4V8.6C3.7002 7.8 4.4002 7.1 5.2002 7.1H13.1002C13.9002 7.1 14.6002 7.8 14.6002 8.6V15.4ZM20.2002 15.3C20.2002 15.4 20.1002 15.6 20.0002 15.6C19.9002 15.7 19.7002 15.6 19.6002 15.6L16.1002 12.8V11.3L19.6002 8.5C19.7002 8.4 19.7002 8.4 19.8002 8.4C20.0002 8.4 20.2002 8.6 20.2002 8.8V15.3Z" fill="white"/>
</g>
<defs>
<clipPath id="clip0_1075_9926">
<rect width="24" height="24" fill="white"/>
</clipPath>
</defs>
</svg>
